<mxfile host="app.diagrams.net" modified="2022-03-08T03:49:00.646Z" agent="5.0 (Macintosh; Intel Mac OS X 10_15_7) AppleWebKit/537.36 (KHTML, like Gecko) Chrome/98.0.4758.109 Safari/537.36" etag="pVbNWCNyTycLZNGMHjP3" version="16.6.3" type="github">
  <diagram name="Page-1" id="b520641d-4fe3-3701-9064-5fc419738815">
    <mxGraphModel dx="946" dy="511" grid="1" gridSize="10" guides="1" tooltips="1" connect="1" arrows="1" fold="1" page="1" pageScale="1" pageWidth="1100" pageHeight="850" background="none" math="0" shadow="0">
      <root>
        <mxCell id="0" />
        <mxCell id="1" parent="0" />
        <mxCell id="KReyotMgQyyD9HD0KRVR-60" value="" style="rounded=0;whiteSpace=wrap;html=1;glass=0;sketch=1;fillColor=#fff2cc;strokeColor=#d6b656;" vertex="1" parent="1">
          <mxGeometry x="105" y="150" width="260" height="130" as="geometry" />
        </mxCell>
        <mxCell id="KReyotMgQyyD9HD0KRVR-67" style="edgeStyle=orthogonalEdgeStyle;rounded=0;orthogonalLoop=1;jettySize=auto;html=1;entryX=0;entryY=0.5;entryDx=0;entryDy=0;" edge="1" parent="1" source="KReyotMgQyyD9HD0KRVR-53" target="KReyotMgQyyD9HD0KRVR-58">
          <mxGeometry relative="1" as="geometry">
            <mxPoint x="480" y="100" as="targetPoint" />
            <Array as="points">
              <mxPoint x="480" y="460" />
              <mxPoint x="480" y="100" />
            </Array>
          </mxGeometry>
        </mxCell>
        <mxCell id="KReyotMgQyyD9HD0KRVR-53" value="" style="rounded=0;whiteSpace=wrap;html=1;glass=0;sketch=1;fillColor=#d5e8d4;strokeColor=#82b366;" vertex="1" parent="1">
          <mxGeometry x="105" y="430" width="260" height="130" as="geometry" />
        </mxCell>
        <mxCell id="KReyotMgQyyD9HD0KRVR-3" value="周报" style="swimlane;fontStyle=0;childLayout=stackLayout;horizontal=1;startSize=30;horizontalStack=0;resizeParent=1;resizeParentMax=0;resizeLast=0;collapsible=1;marginBottom=0;glass=0;sketch=0;rounded=1;" vertex="1" parent="1">
          <mxGeometry x="240" y="460" width="110" height="90" as="geometry" />
        </mxCell>
        <mxCell id="KReyotMgQyyD9HD0KRVR-4" value="报警汇总" style="text;strokeColor=none;fillColor=none;align=center;verticalAlign=middle;spacingLeft=4;spacingRight=4;overflow=hidden;points=[[0,0.5],[1,0.5]];portConstraint=eastwest;rotatable=0;" vertex="1" parent="KReyotMgQyyD9HD0KRVR-3">
          <mxGeometry y="30" width="110" height="30" as="geometry" />
        </mxCell>
        <mxCell id="KReyotMgQyyD9HD0KRVR-5" value="图表展示" style="text;strokeColor=none;fillColor=none;align=center;verticalAlign=middle;spacingLeft=4;spacingRight=4;overflow=hidden;points=[[0,0.5],[1,0.5]];portConstraint=eastwest;rotatable=0;" vertex="1" parent="KReyotMgQyyD9HD0KRVR-3">
          <mxGeometry y="60" width="110" height="30" as="geometry" />
        </mxCell>
        <mxCell id="KReyotMgQyyD9HD0KRVR-11" value="日报" style="swimlane;fontStyle=0;childLayout=stackLayout;horizontal=1;startSize=30;horizontalStack=0;resizeParent=1;resizeParentMax=0;resizeLast=0;collapsible=1;marginBottom=0;rounded=1;" vertex="1" parent="1">
          <mxGeometry x="120" y="460" width="110" height="90" as="geometry" />
        </mxCell>
        <mxCell id="KReyotMgQyyD9HD0KRVR-12" value="报警汇总" style="text;strokeColor=none;fillColor=none;align=center;verticalAlign=middle;spacingLeft=4;spacingRight=4;overflow=hidden;points=[[0,0.5],[1,0.5]];portConstraint=eastwest;rotatable=0;" vertex="1" parent="KReyotMgQyyD9HD0KRVR-11">
          <mxGeometry y="30" width="110" height="30" as="geometry" />
        </mxCell>
        <mxCell id="KReyotMgQyyD9HD0KRVR-13" value="报错汇总" style="text;strokeColor=none;fillColor=none;align=center;verticalAlign=middle;spacingLeft=4;spacingRight=4;overflow=hidden;points=[[0,0.5],[1,0.5]];portConstraint=eastwest;rotatable=0;" vertex="1" parent="KReyotMgQyyD9HD0KRVR-11">
          <mxGeometry y="60" width="110" height="30" as="geometry" />
        </mxCell>
        <mxCell id="KReyotMgQyyD9HD0KRVR-20" value="通知" style="swimlane;fontStyle=0;childLayout=stackLayout;horizontal=1;startSize=30;horizontalStack=0;resizeParent=1;resizeParentMax=0;resizeLast=0;collapsible=1;marginBottom=0;rounded=1;glass=0;sketch=1;fillColor=#f8cecc;strokeColor=#b85450;" vertex="1" parent="1">
          <mxGeometry x="180" y="310" width="110" height="90" as="geometry" />
        </mxCell>
        <mxCell id="KReyotMgQyyD9HD0KRVR-21" value="业务方向群" style="text;strokeColor=none;fillColor=none;align=center;verticalAlign=middle;spacingLeft=4;spacingRight=4;overflow=hidden;points=[[0,0.5],[1,0.5]];portConstraint=eastwest;rotatable=0;rounded=1;glass=0;sketch=0;" vertex="1" parent="KReyotMgQyyD9HD0KRVR-20">
          <mxGeometry y="30" width="110" height="30" as="geometry" />
        </mxCell>
        <mxCell id="KReyotMgQyyD9HD0KRVR-22" value="业务邮件组" style="text;strokeColor=none;fillColor=none;align=center;verticalAlign=middle;spacingLeft=4;spacingRight=4;overflow=hidden;points=[[0,0.5],[1,0.5]];portConstraint=eastwest;rotatable=0;rounded=1;glass=0;sketch=0;" vertex="1" parent="KReyotMgQyyD9HD0KRVR-20">
          <mxGeometry y="60" width="110" height="30" as="geometry" />
        </mxCell>
        <mxCell id="KReyotMgQyyD9HD0KRVR-42" value="" style="edgeStyle=orthogonalEdgeStyle;rounded=0;orthogonalLoop=1;jettySize=auto;html=1;" edge="1" parent="1" source="KReyotMgQyyD9HD0KRVR-38" target="KReyotMgQyyD9HD0KRVR-41">
          <mxGeometry relative="1" as="geometry" />
        </mxCell>
        <mxCell id="KReyotMgQyyD9HD0KRVR-52" value="" style="edgeStyle=orthogonalEdgeStyle;rounded=0;orthogonalLoop=1;jettySize=auto;html=1;" edge="1" parent="1" source="KReyotMgQyyD9HD0KRVR-38">
          <mxGeometry relative="1" as="geometry">
            <mxPoint x="235" y="150" as="targetPoint" />
          </mxGeometry>
        </mxCell>
        <mxCell id="KReyotMgQyyD9HD0KRVR-38" value="采集" style="rounded=1;whiteSpace=wrap;html=1;glass=0;sketch=1;fillColor=#dae8fc;strokeColor=#6c8ebf;" vertex="1" parent="1">
          <mxGeometry x="180" y="80" width="110" height="40" as="geometry" />
        </mxCell>
        <mxCell id="KReyotMgQyyD9HD0KRVR-59" value="" style="edgeStyle=orthogonalEdgeStyle;rounded=0;orthogonalLoop=1;jettySize=auto;html=1;" edge="1" parent="1" source="KReyotMgQyyD9HD0KRVR-41" target="KReyotMgQyyD9HD0KRVR-58">
          <mxGeometry relative="1" as="geometry" />
        </mxCell>
        <mxCell id="KReyotMgQyyD9HD0KRVR-41" value="报警" style="rounded=1;whiteSpace=wrap;html=1;glass=0;sketch=1;fillColor=#fa6800;fontColor=#000000;strokeColor=#C73500;" vertex="1" parent="1">
          <mxGeometry x="350" y="80" width="110" height="40" as="geometry" />
        </mxCell>
        <mxCell id="KReyotMgQyyD9HD0KRVR-47" value="sentry" style="swimlane;fontStyle=0;childLayout=stackLayout;horizontal=1;startSize=30;horizontalStack=0;resizeParent=1;resizeParentMax=0;resizeLast=0;collapsible=1;marginBottom=0;rounded=1;glass=0;sketch=0;" vertex="1" parent="1">
          <mxGeometry x="120" y="180" width="110" height="90" as="geometry" />
        </mxCell>
        <mxCell id="KReyotMgQyyD9HD0KRVR-48" value="最近报警" style="text;strokeColor=none;fillColor=none;align=center;verticalAlign=middle;spacingLeft=4;spacingRight=4;overflow=hidden;points=[[0,0.5],[1,0.5]];portConstraint=eastwest;rotatable=0;rounded=1;glass=0;sketch=0;" vertex="1" parent="KReyotMgQyyD9HD0KRVR-47">
          <mxGeometry y="30" width="110" height="30" as="geometry" />
        </mxCell>
        <mxCell id="KReyotMgQyyD9HD0KRVR-49" value="频繁未处理" style="text;strokeColor=none;fillColor=none;align=center;verticalAlign=middle;spacingLeft=4;spacingRight=4;overflow=hidden;points=[[0,0.5],[1,0.5]];portConstraint=eastwest;rotatable=0;rounded=1;glass=0;sketch=0;" vertex="1" parent="KReyotMgQyyD9HD0KRVR-47">
          <mxGeometry y="60" width="110" height="30" as="geometry" />
        </mxCell>
        <mxCell id="KReyotMgQyyD9HD0KRVR-51" value="" style="endArrow=classic;html=1;rounded=0;entryX=0.5;entryY=0;entryDx=0;entryDy=0;" edge="1" parent="1" target="KReyotMgQyyD9HD0KRVR-20">
          <mxGeometry width="50" height="50" relative="1" as="geometry">
            <mxPoint x="235" y="280" as="sourcePoint" />
            <mxPoint x="234.5" y="270" as="targetPoint" />
          </mxGeometry>
        </mxCell>
        <mxCell id="KReyotMgQyyD9HD0KRVR-55" value="频率" style="text;html=1;align=center;verticalAlign=middle;resizable=0;points=[];autosize=1;strokeColor=none;fillColor=none;" vertex="1" parent="1">
          <mxGeometry x="105" y="435" width="40" height="20" as="geometry" />
        </mxCell>
        <mxCell id="KReyotMgQyyD9HD0KRVR-57" value="" style="endArrow=classic;html=1;rounded=0;" edge="1" parent="1">
          <mxGeometry width="50" height="50" relative="1" as="geometry">
            <mxPoint x="235" y="400" as="sourcePoint" />
            <mxPoint x="234.5" y="430" as="targetPoint" />
          </mxGeometry>
        </mxCell>
        <mxCell id="KReyotMgQyyD9HD0KRVR-70" value="" style="edgeStyle=orthogonalEdgeStyle;rounded=0;orthogonalLoop=1;jettySize=auto;html=1;" edge="1" parent="1" source="KReyotMgQyyD9HD0KRVR-58" target="KReyotMgQyyD9HD0KRVR-69">
          <mxGeometry relative="1" as="geometry" />
        </mxCell>
        <mxCell id="KReyotMgQyyD9HD0KRVR-58" value="" style="rounded=0;whiteSpace=wrap;html=1;glass=0;sketch=1;fillColor=#dae8fc;strokeColor=#6c8ebf;" vertex="1" parent="1">
          <mxGeometry x="510" y="60" width="110" height="80" as="geometry" />
        </mxCell>
        <mxCell id="KReyotMgQyyD9HD0KRVR-61" value="..." style="swimlane;fontStyle=0;childLayout=stackLayout;horizontal=1;startSize=30;horizontalStack=0;resizeParent=1;resizeParentMax=0;resizeLast=0;collapsible=1;marginBottom=0;rounded=1;glass=0;sketch=0;" vertex="1" parent="1">
          <mxGeometry x="240" y="180" width="110" height="90" as="geometry" />
        </mxCell>
        <mxCell id="KReyotMgQyyD9HD0KRVR-62" value="..." style="text;strokeColor=none;fillColor=none;align=center;verticalAlign=middle;spacingLeft=4;spacingRight=4;overflow=hidden;points=[[0,0.5],[1,0.5]];portConstraint=eastwest;rotatable=0;rounded=1;glass=0;sketch=0;" vertex="1" parent="KReyotMgQyyD9HD0KRVR-61">
          <mxGeometry y="30" width="110" height="30" as="geometry" />
        </mxCell>
        <mxCell id="KReyotMgQyyD9HD0KRVR-63" value="..." style="text;strokeColor=none;fillColor=none;align=center;verticalAlign=middle;spacingLeft=4;spacingRight=4;overflow=hidden;points=[[0,0.5],[1,0.5]];portConstraint=eastwest;rotatable=0;rounded=1;glass=0;sketch=0;" vertex="1" parent="KReyotMgQyyD9HD0KRVR-61">
          <mxGeometry y="60" width="110" height="30" as="geometry" />
        </mxCell>
        <mxCell id="KReyotMgQyyD9HD0KRVR-64" value="报警类型" style="text;html=1;align=center;verticalAlign=middle;resizable=0;points=[];autosize=1;strokeColor=none;fillColor=none;" vertex="1" parent="1">
          <mxGeometry x="105" y="150" width="60" height="20" as="geometry" />
        </mxCell>
        <mxCell id="KReyotMgQyyD9HD0KRVR-65" value="sentry" style="rounded=1;whiteSpace=wrap;html=1;glass=0;sketch=0;" vertex="1" parent="1">
          <mxGeometry x="525" y="70" width="80" height="20" as="geometry" />
        </mxCell>
        <mxCell id="KReyotMgQyyD9HD0KRVR-66" value="..." style="rounded=1;whiteSpace=wrap;html=1;glass=0;sketch=0;" vertex="1" parent="1">
          <mxGeometry x="525" y="110" width="80" height="20" as="geometry" />
        </mxCell>
        <mxCell id="KReyotMgQyyD9HD0KRVR-68" value="链接跳转" style="text;html=1;align=center;verticalAlign=middle;resizable=0;points=[];autosize=1;strokeColor=none;fillColor=none;" vertex="1" parent="1">
          <mxGeometry x="390" y="440" width="60" height="20" as="geometry" />
        </mxCell>
        <mxCell id="KReyotMgQyyD9HD0KRVR-78" style="edgeStyle=orthogonalEdgeStyle;rounded=0;orthogonalLoop=1;jettySize=auto;html=1;entryX=0.5;entryY=0;entryDx=0;entryDy=0;" edge="1" parent="1" source="KReyotMgQyyD9HD0KRVR-69" target="KReyotMgQyyD9HD0KRVR-71">
          <mxGeometry relative="1" as="geometry" />
        </mxCell>
        <mxCell id="KReyotMgQyyD9HD0KRVR-69" value="查看详情" style="rounded=1;whiteSpace=wrap;html=1;glass=0;sketch=1;fillColor=#fff2cc;strokeColor=#d6b656;" vertex="1" parent="1">
          <mxGeometry x="670" y="80" width="110" height="40" as="geometry" />
        </mxCell>
        <mxCell id="KReyotMgQyyD9HD0KRVR-85" style="edgeStyle=orthogonalEdgeStyle;rounded=0;orthogonalLoop=1;jettySize=auto;html=1;exitX=0;exitY=0.75;exitDx=0;exitDy=0;entryX=1;entryY=0.627;entryDx=0;entryDy=0;entryPerimeter=0;" edge="1" parent="1" source="KReyotMgQyyD9HD0KRVR-71" target="KReyotMgQyyD9HD0KRVR-53">
          <mxGeometry relative="1" as="geometry">
            <Array as="points">
              <mxPoint x="665" y="512" />
            </Array>
          </mxGeometry>
        </mxCell>
        <mxCell id="KReyotMgQyyD9HD0KRVR-71" value="" style="rounded=0;whiteSpace=wrap;html=1;glass=0;sketch=1;fillColor=#ffe6cc;strokeColor=#d79b00;" vertex="1" parent="1">
          <mxGeometry x="665" y="370" width="120" height="190" as="geometry" />
        </mxCell>
        <mxCell id="KReyotMgQyyD9HD0KRVR-72" value="时间" style="rounded=1;whiteSpace=wrap;html=1;glass=0;sketch=0;" vertex="1" parent="1">
          <mxGeometry x="685" y="405" width="80" height="30" as="geometry" />
        </mxCell>
        <mxCell id="KReyotMgQyyD9HD0KRVR-73" value="浏览器信息" style="rounded=1;whiteSpace=wrap;html=1;glass=0;sketch=0;" vertex="1" parent="1">
          <mxGeometry x="685" y="445" width="80" height="30" as="geometry" />
        </mxCell>
        <mxCell id="KReyotMgQyyD9HD0KRVR-75" value="用户信息" style="rounded=1;whiteSpace=wrap;html=1;glass=0;sketch=0;" vertex="1" parent="1">
          <mxGeometry x="685" y="485" width="80" height="30" as="geometry" />
        </mxCell>
        <mxCell id="KReyotMgQyyD9HD0KRVR-76" value="异常信息" style="rounded=1;whiteSpace=wrap;html=1;glass=0;sketch=0;" vertex="1" parent="1">
          <mxGeometry x="685" y="525" width="80" height="30" as="geometry" />
        </mxCell>
        <mxCell id="KReyotMgQyyD9HD0KRVR-77" value="日志" style="text;html=1;align=center;verticalAlign=middle;resizable=0;points=[];autosize=1;strokeColor=none;fillColor=none;" vertex="1" parent="1">
          <mxGeometry x="665" y="375" width="40" height="20" as="geometry" />
        </mxCell>
        <mxCell id="KReyotMgQyyD9HD0KRVR-86" value="业务排查&amp;amp;解决" style="text;html=1;align=center;verticalAlign=middle;resizable=0;points=[];autosize=1;strokeColor=none;fillColor=none;" vertex="1" parent="1">
          <mxGeometry x="490" y="485" width="100" height="20" as="geometry" />
        </mxCell>
        <mxCell id="KReyotMgQyyD9HD0KRVR-87" value="周会同步" style="text;html=1;align=center;verticalAlign=middle;resizable=0;points=[];autosize=1;strokeColor=none;fillColor=none;" vertex="1" parent="1">
          <mxGeometry x="510" y="515" width="60" height="20" as="geometry" />
        </mxCell>
      </root>
    </mxGraphModel>
  </diagram>
</mxfile>
